<svg width="20" height="20" viewBox="0 0 20 20" fill="none" xmlns="http://www.w3.org/2000/svg">
<path d="M10 2.3103C12.5 2.3103 12.8 2.31968 13.7881 2.36468C14.3828 2.3717 14.9718 2.481 15.5294 2.6878C15.9364 2.83807 16.3046 3.0777 16.6069 3.38905C16.9182 3.69129 17.1579 4.05948 17.3081 4.46655C17.5149 5.02413 17.6242 5.61315 17.6313 6.2078C17.6763 7.1978 17.6875 7.4978 17.6875 9.9978C17.6875 12.4978 17.6781 12.7978 17.6331 13.7859C17.6261 14.3806 17.5168 14.9696 17.31 15.5272C17.1539 15.9313 16.9151 16.2983 16.6087 16.6047C16.3024 16.911 15.9354 17.1499 15.5313 17.3059C14.9737 17.5127 14.3847 17.622 13.79 17.6291C12.8019 17.6741 12.505 17.6834 10.0019 17.6834C7.49875 17.6834 7.20188 17.6741 6.21375 17.6291C5.61909 17.622 5.03008 17.5127 4.4725 17.3059C4.06543 17.1557 3.69723 16.916 3.395 16.6047C3.08365 16.3024 2.84402 15.9342 2.69375 15.5272C2.48695 14.9696 2.37764 14.3806 2.37063 13.7859C2.32375 12.7978 2.3125 12.5009 2.3125 9.9978C2.3125 7.49468 2.32188 7.1978 2.36688 6.20968C2.37389 5.61502 2.4832 5.02601 2.69 4.46843C2.84082 4.06118 3.08109 3.69297 3.39313 3.39093C3.69536 3.07957 4.06356 2.83995 4.47063 2.68968C5.02821 2.48287 5.61722 2.37357 6.21188 2.36655C7.2 2.32155 7.5 2.3103 10 2.3103ZM10 0.622803C7.45375 0.622803 7.13438 0.633428 6.135 0.679053C5.35701 0.695536 4.58741 0.843454 3.85875 1.11655C3.2336 1.35183 2.66716 1.72036 2.19875 2.19655C1.72188 2.66478 1.3527 3.23123 1.11688 3.85655C0.843776 4.58522 0.695858 5.35482 0.679375 6.1328C0.635625 7.13218 0.625 7.45155 0.625 9.9978C0.625 12.5441 0.635625 12.8634 0.68125 13.8628C0.697733 14.6408 0.845651 15.4104 1.11875 16.1391C1.35458 16.7644 1.72376 17.3308 2.20063 17.7991C2.66885 18.2759 3.23531 18.6451 3.86063 18.8809C4.58929 19.154 5.35889 19.3019 6.13688 19.3184C7.13688 19.3641 7.45563 19.3747 10.0019 19.3747C12.5481 19.3747 12.8675 19.3641 13.8669 19.3184C14.6449 19.3019 15.4145 19.154 16.1431 18.8809C16.7657 18.6396 17.331 18.2712 17.8031 17.7991C18.2752 17.327 18.6437 16.7616 18.885 16.1391C19.1581 15.4104 19.306 14.6408 19.3225 13.8628C19.3681 12.8628 19.3788 12.5441 19.3788 9.9978C19.3788 7.45155 19.3681 7.13218 19.3225 6.1328C19.306 5.35482 19.1581 4.58522 18.885 3.85655C18.6492 3.23123 18.28 2.66478 17.8031 2.19655C17.3349 1.71968 16.7684 1.3505 16.1431 1.11468C15.4145 0.841579 14.6449 0.693661 13.8669 0.677178C12.8656 0.633428 12.5463 0.622803 10 0.622803Z" fill="#1A1A1A" fill-opacity="0.56"/>
<path d="M10 5.1853C9.04818 5.1853 8.11773 5.46755 7.32632 5.99636C6.53491 6.52516 5.91808 7.27677 5.55383 8.15614C5.18959 9.03551 5.09428 10.0031 5.27997 10.9367C5.46566 11.8702 5.92401 12.7277 6.59705 13.4008C7.27009 14.0738 8.1276 14.5321 9.06113 14.7178C9.99466 14.9035 10.9623 14.8082 11.8417 14.444C12.721 14.0797 13.4726 13.4629 14.0014 12.6715C14.5303 11.8801 14.8125 10.9496 14.8125 9.9978C14.8125 8.72145 14.3055 7.49737 13.403 6.59485C12.5004 5.69233 11.2764 5.1853 10 5.1853V5.1853ZM10 13.1228C9.38194 13.1228 8.77775 12.9395 8.26385 12.5961C7.74994 12.2528 7.3494 11.7647 7.11288 11.1937C6.87635 10.6227 6.81447 9.99434 6.93505 9.38815C7.05563 8.78195 7.35325 8.22513 7.79029 7.78809C8.22733 7.35105 8.78415 7.05343 9.39034 6.93285C9.99654 6.81227 10.6249 6.87415 11.1959 7.11068C11.7669 7.3472 12.255 7.74774 12.5983 8.26165C12.9417 8.77555 13.125 9.37974 13.125 9.9978C13.125 10.8266 12.7958 11.6215 12.2097 12.2075C11.6237 12.7936 10.8288 13.1228 10 13.1228Z" fill="#1A1A1A" fill-opacity="0.56"/>
<path d="M15.0044 6.11841C15.6257 6.11841 16.1294 5.61473 16.1294 4.99341C16.1294 4.37209 15.6257 3.86841 15.0044 3.86841C14.3831 3.86841 13.8794 4.37209 13.8794 4.99341C13.8794 5.61473 14.3831 6.11841 15.0044 6.11841Z" fill="#1A1A1A" fill-opacity="0.56"/>
</svg>
