<svg width="20" height="18" viewBox="0 0 20 18" fill="none" xmlns="http://www.w3.org/2000/svg">
<path d="M20 2.8125C19.25 3.125 18.5 3.375 17.625 3.4375C18.5 2.9375 19.125 2.125 19.4375 1.1875C18.625 1.6875 17.75 2 16.8125 2.1875C16.0625 1.375 15 0.875 13.875 0.875C11.625 0.875 9.75 2.6875 9.75 5C9.75 5.3125 9.8125 5.625 9.875 5.9375C6.4375 5.75 3.4375 4.125 1.375 1.625C1 2.25 0.8125 2.9375 0.8125 3.6875C0.8125 5.125 1.5625 6.375 2.625 7.125C1.9375 7.125 1.3125 6.9375 0.75 6.625V6.6875C0.75 8.6875 2.1875 10.3125 4.0625 10.6875C3.6875 10.75 3.375 10.8125 3 10.8125C2.75 10.8125 2.5 10.8125 2.25 10.75C2.75 12.375 4.3125 13.5625 6.0625 13.625C4.6875 14.75 2.875 15.375 0.9375 15.375C0.625 15.375 0.25 15.375 -0.0625 15.3125C1.8125 16.4375 4 17.125 6.3125 17.125C13.875 17.125 18 10.875 18 5.4375C18 5.25 18 5.0625 18 4.9375C18.75 4.3125 19.4375 3.625 20 2.8125Z" fill="#1A1A1A" fill-opacity="0.56"/>
</svg>
