<svg width="20" height="20" viewBox="0 0 20 20" fill="none" xmlns="http://www.w3.org/2000/svg">
<path d="M20 10.0006C19.9997 8.08964 19.4518 6.21876 18.4213 4.60946C17.3908 3.00017 15.9207 1.71985 14.1851 0.920082C12.4495 0.120316 10.5211 -0.165406 8.62821 0.0967408C6.73529 0.358888 4.95712 1.15793 3.50421 2.39926C2.0513 3.6406 0.984494 5.27224 0.430087 7.10104C-0.124321 8.92983 -0.143113 10.8792 0.375935 12.7183C0.894983 14.5575 1.93014 16.2094 3.35884 17.4785C4.78755 18.7476 6.54999 19.5808 8.4375 19.8794V12.8913H5.89875V10.0006H8.4375V7.7975C8.4375 5.29125 9.93062 3.90688 12.2144 3.90688C12.9644 3.91728 13.7126 3.98245 14.4531 4.10188V6.56313H13.1919C12.9769 6.53458 12.7584 6.55477 12.5523 6.62219C12.3462 6.68961 12.158 6.80254 12.0015 6.9526C11.845 7.10267 11.7243 7.28602 11.6483 7.48908C11.5723 7.69214 11.543 7.9097 11.5625 8.12563V10.0006H14.3362L13.8925 12.8913H11.5625V19.8794C13.9149 19.5072 16.0572 18.3078 17.604 16.4968C19.1507 14.6858 20.0004 12.3823 20 10.0006V10.0006Z" fill="#1A1A1A" fill-opacity="0.56"/>
</svg>
